<svg xmlns="http://www.w3.org/2000/svg" xmlns:xlink="http://www.w3.org/1999/xlink" width="17.395" height="23.89" viewBox="0 0 17.395 23.89">
  <defs>
    <linearGradient id="linear-gradient" y1="0.5" x2="1" y2="0.5" gradientUnits="objectBoundingBox">
      <stop offset="0" stop-color="#315676"/>
      <stop offset="1" stop-color="#e1b9e0"/>
    </linearGradient>
  </defs>
  <g id="Artboards_Diversity_Avatars_by_Netguru-05" transform="translate(0 0)">
    <path id="Tracé_2" data-name="Tracé 2" d="M108.924,40.748c0,.613-.693,1.126-.844,1.692-.156.585.182,1.376-.114,1.888s-1.158.623-1.579,1.041-.522,1.278-1.042,1.579-1.3-.042-1.887.114c-.565.151-1.079.844-1.692.844s-1.126-.693-1.692-.844c-.585-.156-1.376.182-1.887-.114s-.623-1.157-1.042-1.579-1.278-.522-1.579-1.041.042-1.3-.114-1.888c-.151-.565-.844-1.079-.844-1.692s.693-1.126.844-1.692c.156-.585-.182-1.376.114-1.888s1.158-.623,1.579-1.041.522-1.278,1.042-1.579,1.3.042,1.887-.114c.565-.151,1.079-.844,1.692-.844s1.127.693,1.692.844c.585.156,1.375-.182,1.887.114s.623,1.157,1.042,1.579,1.278.522,1.579,1.041-.043,1.3.114,1.888C108.232,39.621,108.924,40.135,108.924,40.748Z" transform="translate(-92.689 -33.59)" fill="#00214e"/>
    <circle id="Ellipse_2" data-name="Ellipse 2" cx="1.323" cy="1.323" r="1.323" transform="translate(3.728 9.393)" fill="#e18477"/>
    <circle id="Ellipse_3" data-name="Ellipse 3" cx="1.246" cy="1.246" r="1.246" transform="translate(4.262 9.393)" fill="#a76962"/>
    <path id="Tracé_3" data-name="Tracé 3" d="M87.325,206.595a14.026,14.026,0,0,1-17.4,0l3.788-1.776a3.646,3.646,0,0,0,.518-.3c.05-.034.1-.07.147-.107a3.608,3.608,0,0,0,.995-1.175,4.054,4.054,0,0,0,.419-1.9c0-.445-.024-.891-.029-1.337q0-.37-.008-.74l.156.078.4.213.188.032,2.17.369,2.423.413.073,2.491.036,1.21v.026l.942.383Z" transform="translate(-69.93 -186.362)" fill="#e18477"/>
    <path id="Tracé_4" data-name="Tracé 4" d="M150.213,202.586l-.12.012a4.009,4.009,0,0,1-3.166-1.141l-2.132-2.531c-.007-.226-.016,0-.018-.227q0-.37-.008-.74l.156.078.4.209.188.032,2.17.369,2.423.413.073,2.491Z" transform="translate(-138.944 -185.164)" fill="#a76962"/>
    <path id="Tracé_5" data-name="Tracé 5" d="M137.629,97.242a1.344,1.344,0,0,0-.174.476,51.63,51.63,0,0,0,.568,5.42l2.835,2.091a4.01,4.01,0,0,0,3.292.7c.457-.108.747-.178.953-.545a13.65,13.65,0,0,0,1.441-4.789,2.874,2.874,0,0,0-.29-1.621c-.144-.2-.218-.2-.166-.483s.131-.582.2-.873a4.916,4.916,0,0,0,.063-2.513,1.983,1.983,0,0,0-.723-.986c-.367-.294-.519-.28-.74.156a1.491,1.491,0,0,1-.6.713c-.437.242-.734.085-1.168.051-.38-.029-.339.265-.423.545a1.313,1.313,0,0,1-.527.72,1.443,1.443,0,0,1-1.557.009.37.37,0,0,0-.222-.069c-.26.014-.272.326-.331.55a1.092,1.092,0,0,1-1.156.688C138.111,97.418,137.829,96.978,137.629,97.242Z" transform="translate(-132.18 -89.218)" fill="#e18477"/>
    <path id="Tracé_6" data-name="Tracé 6" d="M217.082,154.54a4.46,4.46,0,0,0,.156.894,2.1,2.1,0,0,0,.352.64,1.431,1.431,0,0,1,.139.234.664.664,0,0,1-.588.975h-.322" transform="translate(-205.384 -145.124)" fill="none" stroke="#00214e" stroke-miterlimit="10" stroke-width="1"/>
    <path id="Tracé_7" data-name="Tracé 7" d="M191.16,199.57a2.322,2.322,0,0,0,1.443.754" transform="translate(-181.722 -186.648)" fill="none" stroke="#00214e" stroke-miterlimit="10" stroke-width="1"/>
    <path id="Tracé_8" data-name="Tracé 8" d="M172.49,141.885a6.272,6.272,0,0,1,2.19-.062" transform="translate(-164.506 -133.335)" fill="none" stroke="#00214e" stroke-miterlimit="10" stroke-width="1"/>
    <path id="Tracé_9" data-name="Tracé 9" d="M231.54,142.206a4.282,4.282,0,0,1,1.359-.094" transform="translate(-218.959 -133.647)" fill="none" stroke="#00214e" stroke-miterlimit="10" stroke-width="1"/>
    <path id="Tracé_10" data-name="Tracé 10" d="M87.319,267.6c-6.271,5.75-13.376,3.931-17.389,0l3.788-1.776a3.648,3.648,0,0,0,.518-.3c.05-.034.1-.07.147-.107,1.833,1.3,4.336,2.128,6.5,1.154a2.791,2.791,0,0,0,1.269-1.095Z" transform="translate(-69.93 -247.372)" fill="url(#linear-gradient)"/>
    <path id="Tracé_11" data-name="Tracé 11" d="M201.8,182.73a.265.265,0,0,0,.164.5" transform="translate(-191.405 -171.119)" fill="none" stroke="#00214e" stroke-miterlimit="10" stroke-width="1"/>
    <path id="Tracé_12" data-name="Tracé 12" d="M182.7,152.93a.367.367,0,0,1,0,.734h-.021a.367.367,0,0,1,0-.734Z" transform="translate(-173.575 -143.639)" fill="#00214e"/>
    <path id="Tracé_13" data-name="Tracé 13" d="M233.286,152.27a.341.341,0,0,1,0,.681h-.02a.341.341,0,0,1,0-.681Z" transform="translate(-220.245 -143.031)" fill="#00214e"/>
  </g>
</svg>
